<svg xmlns="http://www.w3.org/2000/svg" viewBox="0 0 320.31 311.81"><g id="icons"><g id="moto"><path d="M315.52,194.8a1.5,1.5,0,0,0,1.49-1.35c0-.17,1.5-16.93-13.19-22.2-12.67-4.55-39.47-17.61-43-19.35a0,0,0,0,1,0,0L224.29,95.4h3.29a8.78,8.78,0,0,0,8.77-8.77V81a9.66,9.66,0,0,0-9.65-9.65H209.5q-.36,0-.72,0l-.38-.59c-.63-2.24-5.38-16-26.25-14.64a1.5,1.5,0,1,0,.19,3c19.92-1.28,23.08,12,23.2,12.58a1.43,1.43,0,0,0,.09.27,12,12,0,0,0-2.56,21.52c1.9,5.51,16.41,48,18.5,53.41,1.92,5-1,10.89-1,10.94a1.22,1.22,0,0,0-.07.17c-.12.32-11.72,32.17-13.54,37.39-1.4,4-6.28,5.9-7.31,6.26H154.34l4.85-33.64,2.26-15.69.73-5.06a1.55,1.55,0,0,0,0-.22,15.27,15.27,0,0,0-15.26-15.25H62.09a15.27,15.27,0,0,0-15.26,15.25v4.47h-.56a43,43,0,0,0-43,43V200H13.5a42.3,42.3,0,0,0,37.93,55.71c.71,0,1.43.06,2.15.06,1,0,1.9,0,2.83-.1a42.37,42.37,0,0,0,38.23-32h109.1l.69,0c2.55,0,10.94-.7,18-9.24,2.6-3.17,7.66-10.79,13.29-19.6h1.11a42.29,42.29,0,1,0,75.89,0Zm-12.71-20.72c10.35,3.71,11.28,14,11.27,17.72H237.59c9.46-14.92,19.88-32.08,22.73-36.79C266.1,157.82,290.72,169.74,302.81,174.08ZM204.94,91.15a9,9,0,0,1,2.36-16.51,8.84,8.84,0,0,1,2.2-.27h17.2A6.66,6.66,0,0,1,233.35,81v5.61a5.78,5.78,0,0,1-5.77,5.77H209.5a8.85,8.85,0,0,1-4.29-1.09ZM53.58,252.73h-.81a35.23,35.23,0,0,1-3.86-.27A39.28,39.28,0,0,1,16.69,200h20a21.61,21.61,0,0,0,10.16,34,20,20,0,0,0,3,.76,21.09,21.09,0,0,0,3.75.33,21.64,21.64,0,0,0,19.1-11.48H91.53A39.35,39.35,0,0,1,53.58,252.73ZM40.73,200H66.44a18.63,18.63,0,0,1,4,21.57h0A18.71,18.71,0,0,1,53.58,232.1a18.49,18.49,0,0,1-3.75-.38,17.61,17.61,0,0,1-3-.89A18.62,18.62,0,0,1,40.73,200ZM74,220.62A21.55,21.55,0,0,0,70.49,200H96.26a23.06,23.06,0,0,1,22.91,20.66Zm77.12-17.57-2.54,17.57h-26.4A26.07,26.07,0,0,0,96.26,197H6.77a2.74,2.74,0,0,0-.5,0v-2.44a40,40,0,0,1,40-40H66.68a1.5,1.5,0,0,0,0-3H49.83v-4.47a12.27,12.27,0,0,1,12.26-12.25h84.84A12.27,12.27,0,0,1,159.19,147l-.66,4.57H81.81a1.5,1.5,0,0,0,0,3H158.1l-7,48.34A.77.77,0,0,0,151.12,203.05Zm68.95,9.45c-7.17,8.72-15.78,8.15-16.14,8.12H151.62l2.29-15.92h46a1.54,1.54,0,0,0,.43-.06c.3-.09,7.41-2.28,9.47-8.21,1.77-5.08,12.86-35.53,13.5-37.28.41-.86,3.36-7.31,1.07-13.28-1.85-4.8-13.93-40.09-17.6-50.78a12.28,12.28,0,0,0,2.73.31h11.21L258,153.08C254,159.61,227.17,203.85,220.07,212.5Zm93.95.95a39.29,39.29,0,1,1-73.85-18.65h23.59a21.63,21.63,0,1,0,21.95,0H309.3A39,39,0,0,1,314,213.45ZM274.73,194.8a18.65,18.65,0,1,1-18.64,18.65A18.67,18.67,0,0,1,274.73,194.8Z" style="fill:#2a2f32"/></g></g></svg>