<svg xmlns="http://www.w3.org/2000/svg" viewBox="0 0 320.31 311.81"><g id="icons"><g id="sports_car" data-name="sports car"><path d="M315.18,160.86a1.3,1.3,0,0,0-.14-.26c-6.22-12.73-23.07-21-24.6-21.7-1.75-1.06-24.93-14.52-55.95-5.82-48.12-31.85-94.07-24-94.49-23.93-11.24,1.69-25.22,3.78-39.8,5.94l-.16,0c-40.28,6-85.11,12.47-89.52,12.6-5-.62-7.12,3.53-7.52,5.83a2.28,2.28,0,0,0,0,.26V164c-.08.88-.44,7,4.63,9.62,6.45,4.43,15.75,7.53,25.62,9.68a27.17,27.17,0,0,0,50.71,5H230.75a27.16,27.16,0,0,0,48.86,0h26.63c7.07,0,10.84-8.11,11-8.45a1.51,1.51,0,0,0,.14-.62v-9.42A21.11,21.11,0,0,0,315.18,160.86ZM59.51,200.56A24.2,24.2,0,0,1,36.56,184a21.17,21.17,0,0,1-.83-3.27,22.87,22.87,0,0,1-.4-4.33,24.18,24.18,0,0,1,48.36,0,23.83,23.83,0,0,1-1.7,8.88,22.74,22.74,0,0,1-1.42,3A24.19,24.19,0,0,1,59.51,200.56Zm218.15-15.29a22.93,22.93,0,0,1-1.43,3,24.17,24.17,0,0,1-42.1,0,22.93,22.93,0,0,1-1.43-3,23.88,23.88,0,0,1-1.7-8.89,24.18,24.18,0,1,1,48.36,0A23.88,23.88,0,0,1,277.66,185.27Zm36.71-6.42c-.65,1.25-3.6,6.42-8.13,6.42H280.86a27.17,27.17,0,0,0-50.5-20c-10.38,0-107.42.21-112.78,0-3.67-.15-13.36-10.57-18.6-17.1a1.5,1.5,0,1,0-2.34,1.88c2.4,3,14.72,18,20.83,18.22,1.94.07,15.31.1,32.25.1,29.48,0,69.76-.08,79.5-.09a27.13,27.13,0,0,0,.28,16.94H85.19a27.18,27.18,0,1,0-52.86-8.89,26.06,26.06,0,0,0,.25,3.66C23.48,178,15,175.1,9.23,171.09L9.05,171C5.48,169.19,6,164.43,6,164.24a1,1,0,0,0,0-.17V133.94c.15-.71,1-3.69,4.26-3.24a.83.83,0,0,0,.22,0c4.16,0,51.73-7,88.18-12.36-.92,12.06,8.7,15.24,8.8,15.27l.22.06,10,1.54.23,0a1.5,1.5,0,0,0,.23-3l-9.83-1.52c-.94-.34-7.63-3.13-6.57-12.82,20.59-3.06,37-5.53,38.8-5.8.44-.08,44.08-7.48,90.45,22.23l-23.13,8.6a1.22,1.22,0,0,0-.28.14c-.05,0-4.45,2.61-15.92.7-7.89-1.31-39.84-6.29-58.17-9.14a1.5,1.5,0,1,0-.46,3c18.33,2.85,50.26,7.83,58.13,9.14a50.28,50.28,0,0,0,8.26.74c5.95,0,8.87-1.37,9.6-1.77l25.62-9.53.07,0c30.59-8.87,54,5.19,54.28,5.34l.15.08c.2.09,15.48,7.38,22.18,18.36H298.9a1.5,1.5,0,0,0,0,3h13.93a17.82,17.82,0,0,1,1.54,6.86Z" style="fill:#2a2f32"/></g></g></svg>