<svg xmlns="http://www.w3.org/2000/svg" viewBox="0 0 320.31 311.81"><g id="icons"><g id="trailer"><path d="M256.77,202.72h-4.31v-7.06a1.5,1.5,0,0,0-3,0v7.06h-14V191.91a6.77,6.77,0,0,0,.23-1.75V71.23a7,7,0,0,0-7-7H69.05a7,7,0,0,0-7,7V190.16a7,7,0,0,0,7,7h35.7a27.15,27.15,0,0,0-13.09,21.76H81a1.5,1.5,0,0,0,0,3H91.66a27.17,27.17,0,0,0,54.26,0h88a1.5,1.5,0,0,0,1.5-1.5v-14.7h21.35a1.5,1.5,0,0,0,0-3Zm-113.85,19.2a24.18,24.18,0,0,1-48.26,0c0-.49,0-1,0-1.5s0-1,0-1.5a24.21,24.21,0,0,1,17.54-21.76h13.18a24.21,24.21,0,0,1,17.54,21.76c0,.49.05,1,.05,1.5S143,221.43,142.92,221.92Zm89.5-3h-86.5a27.15,27.15,0,0,0-13.09-21.76h95.81a6.91,6.91,0,0,0,3.78-1.12Zm.23-28.76a4.23,4.23,0,0,1-.16,1.13.36.36,0,0,0,0,.11,4,4,0,0,1-3.81,2.76H69.05a4,4,0,0,1-4-4V71.23a4,4,0,0,1,4-4H228.64a4,4,0,0,1,4,4Z" style="fill:#2a2f32"/></g></g></svg>