<svg xmlns="http://www.w3.org/2000/svg" viewBox="0 0 320.31 311.81"><g id="icons"><g id="van"><path d="M221.56,96.62a5.3,5.3,0,0,0-.68-.66l.93.93A3.08,3.08,0,0,0,221.56,96.62Zm0,0a5.3,5.3,0,0,0-.68-.66l.93.93A3.08,3.08,0,0,0,221.56,96.62Zm0,0a5.3,5.3,0,0,0-.68-.66l.93.93A3.08,3.08,0,0,0,221.56,96.62Zm0,0a5.3,5.3,0,0,0-.68-.66l.93.93A3.08,3.08,0,0,0,221.56,96.62Zm0,0a5.3,5.3,0,0,0-.68-.66l.93.93A3.08,3.08,0,0,0,221.56,96.62Zm0,0a5.3,5.3,0,0,0-.68-.66l.93.93A3.08,3.08,0,0,0,221.56,96.62Z" style="fill:#2a2f32"/><path d="M221.56,96.62a3.08,3.08,0,0,1,.25.27l.95,1A9.88,9.88,0,0,0,221.56,96.62Z" style="fill:#2a2f32"/><path d="M315.52,150.54a16.92,16.92,0,0,0-1.55-2.25,16.37,16.37,0,0,0-8.48-5.48l-18.5-5-3.35-.9L275,134.62l-11.19-3-4.07-1.09L224.11,95l-.94-.94-.26-.31s0,0,0,0a9.83,9.83,0,0,0-6.45-2.41H13.56A10.22,10.22,0,0,0,3.34,101.47v92.95a10.22,10.22,0,0,0,10.22,10.21H38.67a27.15,27.15,0,0,0,49.44,0H234.34a27.15,27.15,0,0,0,49.44,0h23A10.22,10.22,0,0,0,317,194.42V153.81A16.65,16.65,0,0,0,315.52,150.54Zm-130-56.28h29.67a9.8,9.8,0,0,1,6.26,2.25l-.55-.55a5.3,5.3,0,0,1,.68.66,9.88,9.88,0,0,1,1.2,1.22l1.87,1.87,1.64,1.64L253.88,129l2.65,2.65h-64a7.07,7.07,0,0,1-7.06-7.06Zm-89.73,0h66.55V124.4a7.22,7.22,0,0,1-7.21,7.22H95.77ZM86.11,201.63a22.41,22.41,0,0,1-1.33,3,24.17,24.17,0,0,1-42.78,0,22.41,22.41,0,0,1-1.33-3,23.84,23.84,0,0,1-1.46-8.26,24.18,24.18,0,1,1,48.36,0A23.84,23.84,0,0,1,86.11,201.63Zm195.67,0a22.41,22.41,0,0,1-1.33,3,24.17,24.17,0,0,1-42.78,0,22.41,22.41,0,0,1-1.33-3,23.84,23.84,0,0,1-1.46-8.26,24.15,24.15,0,0,1,9.51-19.21A23,23,0,0,1,247.8,172a24.14,24.14,0,0,1,31.71,8.51,22.89,22.89,0,0,1,1.88,3.61,24.09,24.09,0,0,1,1.85,9.28A23.84,23.84,0,0,1,281.78,201.63ZM314,155.77H297.74a1.5,1.5,0,0,0,0,3H314v22.68h-11a1.5,1.5,0,0,0-1.5,1.5,1.47,1.47,0,0,0,.68,1.25,0,0,0,0,1,0,0,1,1,0,0,0,.23.12,1,1,0,0,0,.25.08l.08,0,.25,0h11v10a7.23,7.23,0,0,1-7.22,7.21H285a27.21,27.21,0,0,0,0-16.59,25,25,0,0,0-1.4-3.48,27.18,27.18,0,0,0-50.37,20.07H89.29a27.18,27.18,0,1,0-51.8,0H13.56a7.23,7.23,0,0,1-7.22-7.21v-10H22a1.5,1.5,0,1,0,0-3H6.34v-80a7.23,7.23,0,0,1,7.22-7.21h9.66V124.4a10.22,10.22,0,0,0,10.21,10.22h8.41a1.5,1.5,0,0,0,0-3H33.43a7.22,7.22,0,0,1-7.21-7.22V94.26H92.77v37.36H56.21a1.5,1.5,0,0,0,0,3h98.9a10.22,10.22,0,0,0,10.21-10.22V94.26H182.5v30.3a10.07,10.07,0,0,0,10.06,10.06h71.22l.16.16,17.25,4.62,3.35.9,20.17,5.41a13.59,13.59,0,0,1,9.26,8.62Z" style="fill:#2a2f32"/><path d="M217.64,184.45h-111a1.5,1.5,0,0,1,0-3h111a1.5,1.5,0,0,1,0,3Z" style="fill:#2a2f32"/><path d="M263.78,134.62h-.42l.58.16Z" style="fill:#2a2f32"/><path d="M263.78,134.62h-.42l.58.16Zm0,0h-.42l.58.16Zm0,0h-.42l.58.16Zm0,0h-.42l.58.16Zm0,0h-.42l.58.16Zm0,0h-.42l.58.16Z" style="fill:#2a2f32"/><path d="M221.81,96.89l-.93-.93A6.81,6.81,0,0,1,221.81,96.89Z" style="fill:#2a2f32"/><path d="M221.81,96.89l-.93-.93A6.81,6.81,0,0,1,221.81,96.89Z" style="fill:#2a2f32"/><path d="M224.11,95l-.94-.94-.26-.31A10.13,10.13,0,0,1,224.11,95Z" style="fill:#2a2f32"/><path d="M222.76,97.84l-.95-1-.93-.93a5.3,5.3,0,0,1,.68.66A9.88,9.88,0,0,1,222.76,97.84Z" style="fill:#2a2f32"/><path d="M221.81,96.89l-.38-.38.13.11a9.88,9.88,0,0,1,1.2,1.22Z" style="fill:#2a2f32"/></g></g></svg>