<svg xmlns="http://www.w3.org/2000/svg" viewBox="0 0 320.31 311.81"><g id="icons"><g id="wheel"><path d="M134,184a36.86,36.86,0,0,0,3.76,3.08Z" style="fill:#2a2f32"/><path d="M198.49,153.77a30.05,30.05,0,0,0-.28-3A38.06,38.06,0,0,0,193,136c-.53-.87-1.08-1.71-1.68-2.53A38.53,38.53,0,0,0,170.74,119c-1-.28-2-.52-2.94-.72a38.62,38.62,0,0,0-7.65-.76,38.15,38.15,0,0,0-8,.85c-1,.21-2,.46-2.94.75a38.51,38.51,0,0,0-19.9,14c-.6.81-1.17,1.65-1.7,2.51a38,38,0,0,0-5.41,14.73c-.15,1-.26,2-.32,3,0,.83-.08,1.68-.08,2.54a38.17,38.17,0,0,0,6.8,21.79c.57.83,1.18,1.64,1.82,2.42A37.45,37.45,0,0,0,134,184l0,0,3.76,3.08,0,0a37.4,37.4,0,0,0,4.77,2.93c.89.47,1.81.9,2.75,1.29a38.42,38.42,0,0,0,29.48.1c.93-.39,1.85-.81,2.75-1.26a38.79,38.79,0,0,0,12.24-9.81c.64-.79,1.25-1.59,1.83-2.42a38.12,38.12,0,0,0,7-22C198.56,155.19,198.54,154.48,198.49,153.77Zm-8.8,21.73c-.56.85-1.17,1.67-1.8,2.47a35.65,35.65,0,0,1-12.23,9.82c-.91.44-1.84.85-2.79,1.21a35.46,35.46,0,0,1-25.62-.07c-.94-.37-1.88-.79-2.79-1.23a35.82,35.82,0,0,1-12.18-9.9c-.62-.79-1.21-1.62-1.77-2.47a35.27,35.27,0,0,1-5.81-19.42c0-.49,0-1,0-1.46,0-1,.12-2,.24-3a35.34,35.34,0,0,1,5.4-14.73q.84-1.29,1.77-2.49a35.65,35.65,0,0,1,17-12c1-.31,1.94-.58,2.94-.82a35.63,35.63,0,0,1,15.69-.09c1,.22,2,.48,2.94.79a35.53,35.53,0,0,1,17.63,12.38c.61.81,1.2,1.65,1.74,2.51a35.09,35.09,0,0,1,5.26,14.78c.12,1,.2,2,.23,3,0,.37,0,.75,0,1.13A35.15,35.15,0,0,1,189.69,175.5Z" style="fill:#2a2f32"/><path d="M152.05,141.59l.06,0v-.05A.07.07,0,0,0,152.05,141.59Z" style="fill:#2a2f32"/><path d="M195.6,154.78c0-1-.11-2-.23-3l-18.93,6.59a16.13,16.13,0,0,0,.18-2.42,16.41,16.41,0,0,0-5.56-12.32L190.11,137c-.54-.86-1.13-1.7-1.74-2.51l-17.63,6.13V122.07c-1-.31-1.94-.57-2.94-.79v20.06a16.4,16.4,0,0,0-15.69.22v.05l-.06,0a.07.07,0,0,1,.06,0V121.37c-1,.24-2,.51-2.94.82v18.33l-17-6.34q-.93,1.2-1.77,2.49l18.79,7h0a16.5,16.5,0,0,0-5.28,14.77l-18.91-7c-.12,1-.21,2-.24,3L142.29,161l-11.78,14.35c.56.85,1.15,1.68,1.77,2.47L145,162.32a16.5,16.5,0,0,0,12.26,9.78l-12.8,15.6c.91.44,1.85.86,2.79,1.23l13-15.84L172.87,189c.95-.36,1.88-.77,2.79-1.21l-12.45-15.71a16.52,16.52,0,0,0,12.17-9.92L187.89,178c.63-.8,1.24-1.62,1.8-2.47l-11.58-14.63ZM172.22,162c-.12.23-.24.46-.38.69a1.62,1.62,0,0,1-.1.18,1.74,1.74,0,0,0-.11.18l0,0-.2.31h0l-.19.28h0a13.53,13.53,0,0,1-6,4.77,13.88,13.88,0,0,1-5,1c-.3,0-.6,0-.9,0a7.93,7.93,0,0,1-1-.1,4,4,0,0,1-.48-.07h0l-.46-.09a13.55,13.55,0,0,1-9-6.77c-.19-.35-.36-.71-.52-1.07a13.79,13.79,0,0,1-.92-3.07h0a12.47,12.47,0,0,1-.15-1.37c0-.3,0-.61,0-.91a13.39,13.39,0,0,1,3.2-8.72,13.89,13.89,0,0,1,1.72-1.71h0a11.57,11.57,0,0,1,1.38-1,12.87,12.87,0,0,1,2.22-1.13,13.44,13.44,0,0,1,10.54.24,13.88,13.88,0,0,1,1.66.89,13.72,13.72,0,0,1,2.41,2h0c.18.18.36.37.53.57a13.46,13.46,0,0,1,3.36,8.91,14.13,14.13,0,0,1-.08,1.46c0,.25-.06.5-.1.74A13.1,13.1,0,0,1,172.22,162Z" style="fill:#2a2f32"/><path d="M160.16,212.89a57,57,0,0,1-49.52-85.21.89.89,0,0,1,1.54.88,55.17,55.17,0,1,0,21.3-21,.88.88,0,0,1-.85-1.55,57,57,0,1,1,27.53,106.89Z" style="fill:#2a2f32"/><path d="M145.78,80.7a.88.88,0,0,1-.63-.25.89.89,0,0,1,0-1.25l14.42-14.42A.88.88,0,0,1,160.81,66L146.4,80.45A.88.88,0,0,1,145.78,80.7Z" style="fill:#2a2f32"/><path d="M160.15,64.49a91.42,91.42,0,1,0,91.42,91.42A91.52,91.52,0,0,0,160.15,64.49Zm72.09,117.64,5.08,19.39a90.53,90.53,0,0,1-31.07,31.26l4.84-17.58a.88.88,0,0,0-.62-1.09.87.87,0,0,0-1.08.61l-5.33,19.34a89,89,0,0,1-42.57,11.48l13-12.8a.88.88,0,0,0-1.24-1.26L159,245.55a89,89,0,0,1-42.57-11.42l17.67-4.54a.89.89,0,0,0-.44-1.72l-19.41,5a90.35,90.35,0,0,1-31.13-31.2l17.56,4.92a1,1,0,0,0,.24,0,.88.88,0,0,0,.24-1.73l-19.3-5.41a89,89,0,0,1-11.31-42.62l12.74,13.08a.91.91,0,0,0,1.25,0,.88.88,0,0,0,0-1.25l-14-14.37a89.14,89.14,0,0,1,11.59-42.51l4.48,17.68a.87.87,0,0,0,.85.66.78.78,0,0,0,.22,0,.88.88,0,0,0,.64-1.07l-4.92-19.43a90.41,90.41,0,0,1,31.34-31l-5,17.55a.87.87,0,0,0,.6,1.09,1.2,1.2,0,0,0,.24,0,.88.88,0,0,0,.85-.65l5.49-19.28a89,89,0,0,1,41.16-11.11L145.15,79.2a.89.89,0,0,0,0,1.25.91.91,0,0,0,.63.26.89.89,0,0,0,.62-.26l14.19-14.2a89.12,89.12,0,0,1,42.66,11.06L185.62,82a.88.88,0,0,0,.23,1.73.63.63,0,0,0,.23,0l19.36-5.15a90.33,90.33,0,0,1,31.39,30.93l-17.6-4.77a.89.89,0,1,0-.46,1.71l19.35,5.24a89.14,89.14,0,0,1,11.67,42.53l-12.86-13a.88.88,0,0,0-1.26,1.24l14.13,14.25a89.14,89.14,0,0,1-11.23,42.61L234,181.68a.89.89,0,0,0-1.08-.63A.88.88,0,0,0,232.24,182.13Z" style="fill:#2a2f32"/><path d="M152.05,141.59l.06,0v-.05A.07.07,0,0,0,152.05,141.59Z" style="fill:none"/><path d="M134,184a36.86,36.86,0,0,0,3.76,3.08Z" style="fill:#2a2f32"/></g></g></svg>